<svg width="18" height="23" viewBox="0 0 18 23" fill="none" xmlns="http://www.w3.org/2000/svg">
<path d="M9 8.72498C11.21 8.72498 13 6.93498 13 4.72498C13 2.51498 11.21 0.724976 9 0.724976C6.79 0.724976 5 2.51498 5 4.72498C5 6.93498 6.79 8.72498 9 8.72498ZM9 2.72498C10.1 2.72498 11 3.62498 11 4.72498C11 5.82498 10.1 6.72498 9 6.72498C7.9 6.72498 7 5.82498 7 4.72498C7 3.62498 7.9 2.72498 9 2.72498ZM9 11.275C6.64 9.07498 3.48 7.72498 0 7.72498V18.725C3.48 18.725 6.64 20.075 9 22.275C11.36 20.085 14.52 18.725 18 18.725V7.72498C14.52 7.72498 11.36 9.07498 9 11.275ZM16 16.855C13.47 17.195 11.07 18.155 9 19.675C6.94 18.155 4.53 17.185 2 16.845V9.89498C4.1 10.275 6.05 11.245 7.64 12.725L9 14.005L10.36 12.735C11.95 11.255 13.9 10.285 16 9.90498V16.855Z" fill="white"/>
</svg>
