<svg width="18" height="17" viewBox="0 0 18 17" fill="none" xmlns="http://www.w3.org/2000/svg">
<path d="M1.66667 9.41667H7.16667C7.67083 9.41667 8.08333 9.00417 8.08333 8.5V1.16667C8.08333 0.6625 7.67083 0.25 7.16667 0.25H1.66667C1.1625 0.25 0.75 0.6625 0.75 1.16667V8.5C0.75 9.00417 1.1625 9.41667 1.66667 9.41667ZM1.66667 16.75H7.16667C7.67083 16.75 8.08333 16.3375 8.08333 15.8333V12.1667C8.08333 11.6625 7.67083 11.25 7.16667 11.25H1.66667C1.1625 11.25 0.75 11.6625 0.75 12.1667V15.8333C0.75 16.3375 1.1625 16.75 1.66667 16.75ZM10.8333 16.75H16.3333C16.8375 16.75 17.25 16.3375 17.25 15.8333V8.5C17.25 7.99583 16.8375 7.58333 16.3333 7.58333H10.8333C10.3292 7.58333 9.91667 7.99583 9.91667 8.5V15.8333C9.91667 16.3375 10.3292 16.75 10.8333 16.75ZM9.91667 1.16667V4.83333C9.91667 5.3375 10.3292 5.75 10.8333 5.75H16.3333C16.8375 5.75 17.25 5.3375 17.25 4.83333V1.16667C17.25 0.6625 16.8375 0.25 16.3333 0.25H10.8333C10.3292 0.25 9.91667 0.6625 9.91667 1.16667Z" fill="white"/>
</svg>
